<?xml version="1.0" encoding="utf-8"?>
<!-- Generator: Adobe Illustrator 24.0.1, SVG Export Plug-In . SVG Version: 6.00 Build 0)  -->
<svg version="1.1" id="Layer_1" xmlns="http://www.w3.org/2000/svg" xmlns:xlink="http://www.w3.org/1999/xlink" x="0px" y="0px"
	 viewBox="0 0 202.1 77.4" style="enable-background:new 0 0 202.1 77.4;" xml:space="preserve">
<style type="text/css">
	.st0{fill:#282034;}
	.st1{fill:url(#SVGID_1_);}
</style>
<g>
	<g>
		<g>
			<g>
				<path class="st0" d="M115.5,37.2l-1.3,3.8h-11.1v6.1h-4.6v-17h19.3l-1.3,3.8h-13.4v3.3H115.5z"/>
				<path class="st0" d="M137.6,37.2l-1.3,3.8h-11.1v6.1h-4.6v-17h19.3l-1.3,3.8h-13.4v3.3H137.6z"/>
				<path class="st0" d="M147.3,30.1v17h-4.6v-17H147.3z"/>
				<path class="st0" d="M172.8,47.1H168L155.9,36v11.1h-4.6v-17h4.6L168,41.2V30.1h4.7V47.1z"/>
				<path class="st0" d="M195.2,36.8l-1.2,3.5h-12.5v3h14.7l-1.3,3.8h-18.1v-17h19.4l-1.3,3.8h-13.5v2.9H195.2z"/>
			</g>
			<g>
				<path class="st0" d="M78.2,44.6l-1.4,2.5H72l9.3-17H86l9.3,17h-4.9l-1.3-2.5H78.2z M87.4,41.5l-3.7-6.9l-3.7,6.9H87.4z"/>
			</g>
		</g>
		
			<linearGradient id="SVGID_1_" gradientUnits="userSpaceOnUse" x1="66.4178" y1="25.023" x2="16.2636" y2="49.8305" gradientTransform="matrix(1 0 0 -1 0 80)">
			<stop  offset="3.205128e-04" style="stop-color:#6ECDE3"/>
			<stop  offset="0.1237" style="stop-color:#7893C2"/>
			<stop  offset="0.2358" style="stop-color:#7D65A9"/>
			<stop  offset="0.2869" style="stop-color:#7D52A0"/>
			<stop  offset="0.3572" style="stop-color:#8E4E92"/>
			<stop  offset="0.5079" style="stop-color:#B54271"/>
			<stop  offset="0.7112" style="stop-color:#EB1E40"/>
			<stop  offset="1" style="stop-color:#F15D5B"/>
		</linearGradient>
		<path class="st1" d="M43.9,24.9c-0.1,0.1-0.2,0.3-0.3,0.4c-0.5,0.9-1,1.7-1.5,2.6L35,12.6l0,0h-4.4L5.8,64.7l0,0l0,0H15l0,0h7.6
			c1.8,0,3.5-0.3,5.1-0.8c0.4-0.1,0.7-0.3,1.1-0.5c0.1,0,0.2-0.1,0.2-0.1c0.1,0,0.1-0.1,0.2-0.1c0.1,0,0.2-0.1,0.2-0.1
			c0.1,0,0.2-0.1,0.2-0.1c0.2-0.1,0.3-0.2,0.5-0.2c0,0,0.1,0,0.1-0.1c0.3-0.2,0.6-0.4,0.9-0.5l0.1-0.1c0.2-0.1,0.3-0.2,0.4-0.3
			c0.1,0,0.1-0.1,0.2-0.1c0.1-0.1,0.2-0.1,0.2-0.2c0.1,0,0.1-0.1,0.2-0.1c0.1,0,0.1-0.1,0.2-0.1c0.3-0.3,0.6-0.5,0.9-0.7
			c0.1-0.1,0.2-0.2,0.4-0.3c0.1-0.1,0.1-0.1,0.2-0.2c0.1-0.1,0.3-0.2,0.4-0.4c0.1-0.1,0.1-0.1,0.2-0.2c0.1-0.1,0.3-0.2,0.4-0.4
			c0.1-0.1,0.1-0.1,0.2-0.2c0.3-0.3,0.5-0.5,0.7-0.8c0,0,0,0,0-0.1c0.1-0.1,0.2-0.3,0.3-0.4c0.1-0.1,0.1-0.2,0.2-0.2
			c0.1-0.1,0.2-0.3,0.3-0.4c0.1-0.1,0.1-0.2,0.2-0.3c0.1-0.1,0.2-0.3,0.3-0.4c0.1-0.1,0.1-0.2,0.2-0.3c0.2-0.2,0.3-0.5,0.5-0.6
			c0.1-0.1,0.2-0.2,0.2-0.3c0.1-0.1,0.2-0.3,0.3-0.4c0.1-0.1,0.2-0.2,0.2-0.3c0.1-0.1,0.2-0.3,0.3-0.4c0.1-0.1,0.2-0.3,0.2-0.4
			c0.1-0.1,0.2-0.2,0.2-0.4c0.1-0.2,0.3-0.5,0.4-0.6c0.1-0.1,0.1-0.2,0.2-0.3c0.1-0.2,0.2-0.3,0.3-0.5c0.1-0.1,0.1-0.2,0.2-0.4
			c0.1-0.2,0.2-0.3,0.3-0.5c0.1-0.1,0.1-0.2,0.2-0.3c0.1-0.2,0.2-0.4,0.3-0.5c0-0.1,0.1-0.2,0.1-0.2c0.1-0.3,0.3-0.5,0.4-0.7
			c0-0.1,0.1-0.2,0.1-0.3c0.1-0.2,0.2-0.4,0.3-0.5c0.1-0.1,0.1-0.2,0.2-0.3c0.1-0.2,0.2-0.4,0.3-0.5c0-0.1,0.1-0.2,0.1-0.3
			c0.1-0.3,0.3-0.5,0.4-0.7l0,0l8.6,17.3h8.8l0,0l0,0l0,0l0,0l0,0l0,0l-13-27.3c3.7-8.3,8.4-16.6,14.3-16.6l0,0l0,0l0,0l0,0v-8.1
			l0,0l0,0l0,0l0,0C53.4,12.5,47.9,18.3,43.9,24.9z M24.3,56.2c-0.5,0.2-1.2,0.2-1.8,0.2h-3.8l14-28.8L37.5,38l0,0
			c0,0.1-0.1,0.1-0.1,0.2c-0.1,0.3-0.2,0.5-0.4,0.7c0,0.1-0.1,0.2-0.1,0.3c-0.1,0.3-0.2,0.5-0.3,0.7c0,0.1-0.1,0.2-0.1,0.3
			c-0.1,0.3-0.2,0.5-0.3,0.7c0,0.1-0.1,0.2-0.1,0.3c-0.1,0.3-0.2,0.5-0.4,0.7c0,0.1-0.1,0.2-0.1,0.2c-0.1,0.3-0.3,0.5-0.4,0.8
			c0,0,0,0.1-0.1,0.1c-0.6,1.3-1.2,2.5-1.8,3.7l0,0c-0.2,0.3-0.3,0.5-0.5,0.8l0,0c-0.2,0.3-0.3,0.5-0.5,0.8l0,0
			c-0.8,1.4-1.6,2.6-2.5,3.7l0,0C28.2,54.3,26.4,55.7,24.3,56.2z"/>
	</g>
	<g>
		<path class="st0" d="M76.7,64.2c-0.5,0.3-1.1,0.5-1.7,0.5c-0.5,0-0.9-0.1-1.3-0.3c-0.4-0.2-0.6-0.4-0.9-0.6
			c-0.3-0.3-0.4-0.6-0.5-1c-0.1-0.4-0.2-0.7-0.2-1.2c0-0.8,0.1-1.5,0.4-2.2c0.3-0.6,0.5-1.1,0.9-1.5c0.4-0.4,0.8-0.6,1.4-0.8
			c0.5-0.2,1-0.3,1.5-0.3c0.4,0,0.7,0,1,0.1c0.3,0.1,0.5,0.1,0.6,0.2l-0.5,1.3c-0.2-0.1-0.3-0.2-0.5-0.2c-0.2,0-0.5-0.1-0.7-0.1
			c-0.4,0-0.7,0.1-1,0.2c-0.3,0.2-0.5,0.4-0.8,0.6s-0.4,0.6-0.5,1c-0.1,0.4-0.2,0.8-0.2,1.4c0,0.6,0.2,1.1,0.5,1.5
			c0.3,0.4,0.7,0.5,1.2,0.5c0.4,0,0.5,0,0.8-0.1c0.3-0.1,0.4-0.2,0.6-0.3L76.7,64.2z"/>
		<path class="st0" d="M79.8,61.8c0-0.6,0.1-1.3,0.3-1.9c0.2-0.5,0.5-1.1,0.8-1.5c0.4-0.5,0.7-0.8,1.2-1c0.5-0.3,1-0.4,1.5-0.4
			c0.4,0,0.7,0.1,1,0.2c0.3,0.1,0.5,0.3,0.8,0.5c0.2,0.3,0.4,0.5,0.5,0.9c0.1,0.4,0.2,0.8,0.2,1.3c0,0.6-0.1,1.3-0.3,1.9
			c-0.2,0.6-0.5,1.1-0.7,1.5c-0.4,0.5-0.7,0.8-1.2,1.1c-0.5,0.3-1,0.4-1.5,0.4c-0.8,0-1.5-0.3-1.9-0.7
			C80.1,63.5,79.8,62.7,79.8,61.8z M81.3,61.7c0,0.5,0.1,0.9,0.3,1.3c0.2,0.3,0.5,0.5,1,0.5c0.4,0,0.6-0.1,0.9-0.3s0.5-0.5,0.7-0.8
			c0.2-0.4,0.4-0.7,0.5-1.2s0.2-0.9,0.2-1.4c0-0.5-0.1-1-0.4-1.3c-0.2-0.3-0.5-0.4-0.9-0.4c-0.4,0-0.6,0.1-0.9,0.3
			c-0.3,0.2-0.5,0.5-0.7,0.7c-0.2,0.3-0.4,0.7-0.5,1.1C81.4,60.8,81.3,61.2,81.3,61.7z"/>
		<path class="st0" d="M94.9,60.7l0.5-1.5h-0.1l-0.7,1.2l-2.1,2.8H92l-1-2.8l-0.2-1.2h-0.1l-0.1,1.5l-0.8,3.9h-1.3l1.5-7.5h1.3
			l1.1,3.5l0.2,0.8h0.1l0.5-0.9l2.5-3.4h1.4l-1.5,7.5h-1.4L94.9,60.7z"/>
		<path class="st0" d="M105.4,60.7l0.5-1.5h-0.1l-0.7,1.2l-2.1,2.8h-0.5l-1-2.8l-0.2-1.2h-0.1l-0.1,1.5l-0.8,3.9H99l1.5-7.5h1.3
			l1.1,3.5l0.2,0.8h0.1l0.5-0.9l2.5-3.4h1.4l-1.5,7.5h-1.5L105.4,60.7z"/>
		<path class="st0" d="M113.4,62.8h-2.2l-0.9,1.6h-1.5l4.2-7.6h1l1,7.6h-1.4L113.4,62.8z M111.9,61.7h1.5l-0.2-1.6v-1.2h-0.1
			l-0.5,1.2L111.9,61.7z"/>
		<path class="st0" d="M120.6,60.6l-0.4-1.2h-0.1l-0.1,1.2l-0.8,3.9H118l1.6-7.6h1l1.8,4l0.4,1.2h0.1l0.1-1.2l0.8-3.9h1.3l-1.6,7.6
			h-1L120.6,60.6z"/>
		<path class="st0" d="M128.5,57c0.2,0,0.3,0,0.5-0.1c0.2,0,0.4,0,0.5,0c0.2,0,0.3,0,0.4,0c0.1,0,0.2,0,0.3,0s0.3,0,0.4,0
			c0.5,0,0.8,0.1,1.2,0.2c0.4,0.1,0.6,0.3,0.9,0.5s0.5,0.5,0.5,0.9c0.2,0.4,0.2,0.8,0.2,1.3c0,0.3,0,0.6-0.1,1s-0.2,0.7-0.3,1.1
			s-0.3,0.7-0.5,1.1c-0.2,0.4-0.5,0.6-0.8,0.9c-0.4,0.3-0.7,0.5-1.2,0.6c-0.5,0.2-1,0.3-1.6,0.3c-0.1,0-0.2,0-0.4,0
			c-0.1,0-0.2,0-0.2,0c-0.2,0-0.3,0-0.5,0s-0.4,0-0.5,0c-0.2,0-0.3,0-0.4,0L128.5,57z M128.6,63.3L128.6,63.3c0.2,0,0.2,0,0.3,0
			c0.1,0,0.2,0,0.2,0c0.1,0,0.1,0,0.2,0c0.5,0,0.9-0.1,1.3-0.4c0.4-0.2,0.6-0.5,0.8-0.8c0.2-0.4,0.4-0.7,0.5-1.1s0.2-0.7,0.2-1.1
			c0-0.5-0.1-1-0.4-1.3s-0.6-0.5-1.2-0.5c-0.2,0-0.3,0-0.5,0c-0.2,0-0.3,0-0.4,0L128.6,63.3z"/>
		<path class="st0" d="M146.6,58.3h-2.1l-1.3,6.2h-1.4l1.3-6.2h-2.1l0.3-1.3h5.6L146.6,58.3z"/>
		<path class="st0" d="M153,61.4h-2.6l-0.6,3.2h-1.4l1.5-7.5h1.4l-0.6,3.1h2.6l0.6-3.1h1.4l-1.5,7.5h-1.4L153,61.4z"/>
		<path class="st0" d="M158.8,57h1.4h2.8l-0.3,1.3h-2.8l-0.4,1.7h2.5l-0.3,1.3h-2.5l-0.4,1.8h2.9l-0.3,1.3h-2.9h-1.4L158.8,57z"/>
		<path class="st0" d="M172.5,60.6l-0.4-1.2H172l-0.1,1.2l-0.8,3.9h-1.3l1.6-7.6h1l1.8,4l0.4,1.2h0.1l0.1-1.2l0.8-3.9h1.3l-1.6,7.6
			h-1L172.5,60.6z"/>
		<path class="st0" d="M180.4,57h1.4h2.8l-0.3,1.3h-2.8l-0.4,1.7h2.5l-0.3,1.3h-2.5l-0.4,1.8h2.9l-0.3,1.3h-2.9h-1.4L180.4,57z"/>
		<path class="st0" d="M188.9,61.2l-0.2,1.4h0.1l0.5-1.4l2.1-4.2h0.9l0.3,4.2l-0.2,1.4h0.1l0.5-1.4l1.7-4.2h1.5l-3.5,7.6h-1
			l-0.4-4.2l0.1-1.2h-0.1l-0.4,1.2l-2.1,4.2h-1l-0.4-7.6h1.5L188.9,61.2z"/>
	</g>
</g>
</svg>
